<svg xmlns="http://www.w3.org/2000/svg" viewBox="0 0 410 404"><g fill="none" fill-rule="evenodd"><path fill="url(#logo-light)" d="M51.17 112.71c9.73 46.18 26.23 125.19 50.49 237.01 20.17 91.69 42.77 162.65 67.78 212.89 39.64 83.68 68.4 125.52 86.29 125.52 17.7 0 45.66-43.71 83.89-131.12 23.92-50.41 47.12-122.44 69.61-216.1 25.83-113.92 43.08-192.89 51.76-237.01C422.17 47.67 437.44 1.33 426.43.5c-11.03-.83-48.06 34.53-111.1 106.08-40.76 45.21-67.96 81.21-81.61 107.98-15.7 30.04-31.55 48.97-47.57 56.8-15.65-8.12-30.52-26.83-44.61-56.12-15.93-30.4-42.18-66.17-78.73-107.31C75.32 34.25 40.77-.33 30.76.5c-11.03.84 2.34 46.87 20.41 112.21z"/><path fill="url(#logo-dark)" d="M151.17 124.71c9.73 46.18 26.23 125.19 50.49 237.01 20.17 91.69 42.77 162.65 67.78 212.89 39.64 83.68 68.4 125.52 86.29 125.52 17.7 0 45.66-43.71 83.89-131.12 23.92-50.41 47.12-122.44 69.61-216.1 25.83-113.92 43.08-192.89 51.76-237.01C522.17 47.67 537.44 1.33 526.43.5c-11.03-.83-48.06 34.53-111.1 106.08-40.76 45.21-67.96 81.21-81.61 107.98-15.7 30.04-31.55 48.97-47.57 56.8-15.65-8.12-30.52-26.83-44.61-56.12-15.93-30.4-42.18-66.17-78.73-107.31C175.32 34.25 140.77-.33 130.76.5c-11.03.84 2.34 46.87 20.41 112.21z"/><defs><linearGradient id="logo-light" x1=".52%" x2="75.97%" y1="27.65%" y2="61.42%"><stop stop-color="#41D1FF" offset="0%"/><stop stop-color="#BD34FE" offset="100%"/></linearGradient><linearGradient id="logo-dark" x1="50%" x2="50%" y1="32.46%" y2="106.28%"><stop stop-color="#FFEA83" offset="0%"/><stop stop-color="#FFDD35" offset="8.33%"/><stop stop-color="#FFA800" offset="100%"/></linearGradient></defs></g></svg>
